# Blender v2.77 (sub 0) OBJ File: ''
# www.blender.org
mtllib desk_leg.mtl
o table_grp_tableLeg02
v -0.099576 -0.000672 5.742718
v -0.132533 -0.000672 5.709761
v -0.132533 3.732850 5.709761
v -0.099576 3.732850 5.742718
v -0.177552 -0.000672 5.697698
v -0.177552 3.732850 5.697698
v -0.222572 -0.000672 5.709761
v -0.222572 3.732850 5.709761
v -0.255529 -0.000672 5.742718
v -0.255529 3.732850 5.742718
v -0.267592 -0.000672 5.787738
v -0.267592 3.732850 5.787738
v -0.255529 -0.000672 5.832758
v -0.255529 3.732850 5.832758
v -0.222572 -0.000672 5.865714
v -0.222572 3.732850 5.865715
v -0.177552 -0.000672 5.877778
v -0.177552 3.732850 5.877778
v -0.132533 -0.000672 5.865714
v -0.132533 3.732850 5.865715
v -0.099576 -0.000672 5.832758
v -0.099576 3.732850 5.832758
v -0.087512 -0.000672 5.787738
v -0.087512 3.732850 5.787738
vt 0.4672 0.0020
vt 0.4760 0.0020
vt 0.4760 0.9980
vt 0.4672 0.9980
vt 0.4880 0.0020
vt 0.4880 0.9980
vt 0.5000 0.0020
vt 0.5000 0.9980
vt 0.5088 0.0020
vt 0.5088 0.9980
vt 0.5208 0.0020
vt 0.5208 0.9980
vt 0.5328 0.0020
vt 0.5328 0.9980
vt 0.5416 0.0020
vt 0.5416 0.9980
vt 0.5536 0.0020
vt 0.5536 0.9980
vt 0.5656 0.0020
vt 0.5656 0.9980
vt 0.4344 0.0020
vt 0.4432 0.0020
vt 0.4432 0.9980
vt 0.4344 0.9980
vt 0.4552 0.0020
vt 0.4552 0.9980
vn 0.7071 0.0000 -0.7071
vn 0.2588 0.0000 -0.9659
vn -0.2588 0.0000 -0.9659
vn -0.7071 0.0000 -0.7071
vn -0.9659 0.0000 -0.2588
vn -0.9659 -0.0000 0.2588
vn -0.7071 -0.0000 0.7071
vn -0.2588 -0.0000 0.9659
vn 0.2588 -0.0000 0.9659
vn 0.7071 -0.0000 0.7071
vn 0.9659 -0.0000 0.2588
vn 0.9659 0.0000 -0.2588
usemtl None
s off
f 1/1/1 2/2/1 3/3/1 4/4/1
f 2/2/2 5/5/2 6/6/2 3/3/2
f 5/5/3 7/7/3 8/8/3 6/6/3
f 7/7/4 9/9/4 10/10/4 8/8/4
f 9/9/5 11/11/5 12/12/5 10/10/5
f 11/11/6 13/13/6 14/14/6 12/12/6
f 13/13/7 15/15/7 16/16/7 14/14/7
f 15/15/8 17/17/8 18/18/8 16/16/8
f 17/17/9 19/19/9 20/20/9 18/18/9
f 19/21/10 21/22/10 22/23/10 20/24/10
f 21/22/11 23/25/11 24/26/11 22/23/11
f 23/25/12 1/1/12 4/4/12 24/26/12
o table_grp_tableLeg01
v 1.573809 -0.000672 3.457226
v 1.540852 -0.000672 3.424269
v 1.540852 3.732850 3.424270
v 1.573809 3.732850 3.457227
v 1.495832 -0.000672 3.412206
v 1.495832 3.732850 3.412207
v 1.450813 -0.000672 3.424269
v 1.450813 3.732850 3.424270
v 1.417856 -0.000672 3.457226
v 1.417856 3.732850 3.457227
v 1.405793 -0.000672 3.502246
v 1.405793 3.732850 3.502247
v 1.417856 -0.000672 3.547266
v 1.417856 3.732850 3.547266
v 1.450813 -0.000672 3.580222
v 1.450813 3.732850 3.580223
v 1.495832 -0.000672 3.592286
v 1.495832 3.732850 3.592286
v 1.540852 -0.000672 3.580222
v 1.540852 3.732850 3.580223
v 1.573809 -0.000672 3.547266
v 1.573809 3.732850 3.547266
v 1.585872 -0.000672 3.502246
v 1.585872 3.732850 3.502247
vt 0.4672 0.0020
vt 0.4760 0.0020
vt 0.4760 0.9980
vt 0.4672 0.9980
vt 0.4880 0.0020
vt 0.4880 0.9980
vt 0.5000 0.0020
vt 0.5000 0.9980
vt 0.5088 0.0020
vt 0.5088 0.9980
vt 0.5208 0.0020
vt 0.5208 0.9980
vt 0.5328 0.0020
vt 0.5328 0.9980
vt 0.5416 0.0020
vt 0.5416 0.9980
vt 0.5536 0.0020
vt 0.5536 0.9980
vt 0.5656 0.0020
vt 0.5656 0.9980
vt 0.4344 0.0020
vt 0.4432 0.0020
vt 0.4432 0.9980
vt 0.4344 0.9980
vt 0.4552 0.0020
vt 0.4552 0.9980
vn 0.7071 0.0000 -0.7071
vn 0.2588 0.0000 -0.9659
vn -0.2588 0.0000 -0.9659
vn -0.7071 0.0000 -0.7071
vn -0.9659 0.0000 -0.2588
vn -0.9659 -0.0000 0.2588
vn -0.7071 -0.0000 0.7071
vn -0.2588 -0.0000 0.9659
vn 0.2588 -0.0000 0.9659
vn 0.7071 -0.0000 0.7071
vn 0.9659 -0.0000 0.2588
vn 0.9659 0.0000 -0.2588
usemtl None
s off
f 25/27/13 26/28/13 27/29/13 28/30/13
f 26/28/14 29/31/14 30/32/14 27/29/14
f 29/31/15 31/33/15 32/34/15 30/32/15
f 31/33/16 33/35/16 34/36/16 32/34/16
f 33/35/17 35/37/17 36/38/17 34/36/17
f 35/37/18 37/39/18 38/40/18 36/38/18
f 37/39/19 39/41/19 40/42/19 38/40/19
f 39/41/20 41/43/20 42/44/20 40/42/20
f 41/43/21 43/45/21 44/46/21 42/44/21
f 43/47/22 45/48/22 46/49/22 44/50/22
f 45/48/23 47/51/23 48/52/23 46/49/23
f 47/51/24 25/27/24 28/30/24 48/52/24
o table_grp_tableLeg04
v -0.099576 -0.000671 -5.783227
v -0.099576 3.732852 -5.783227
v -0.132533 3.732852 -5.750270
v -0.132533 -0.000671 -5.750270
v -0.177552 3.732852 -5.738207
v -0.177552 -0.000671 -5.738207
v -0.222572 3.732852 -5.750270
v -0.222572 -0.000671 -5.750270
v -0.255529 3.732852 -5.783227
v -0.255529 -0.000671 -5.783227
v -0.267592 3.732852 -5.828247
v -0.267592 -0.000671 -5.828247
v -0.255529 3.732852 -5.873266
v -0.255529 -0.000671 -5.873267
v -0.222572 3.732852 -5.906223
v -0.222572 -0.000671 -5.906223
v -0.177552 3.732852 -5.918286
v -0.177552 -0.000671 -5.918287
v -0.132533 3.732852 -5.906223
v -0.132533 -0.000671 -5.906223
v -0.099576 3.732852 -5.873266
v -0.099576 -0.000671 -5.873267
v -0.087512 3.732852 -5.828247
v -0.087512 -0.000671 -5.828247
vt 0.5328 0.0020
vt 0.5328 0.9980
vt 0.5240 0.9980
vt 0.5240 0.0020
vt 0.5120 0.9980
vt 0.5120 0.0020
vt 0.5000 0.9980
vt 0.5000 0.0020
vt 0.4912 0.9980
vt 0.4912 0.0020
vt 0.4792 0.9980
vt 0.4792 0.0020
vt 0.4672 0.9980
vt 0.4672 0.0020
vt 0.4584 0.9980
vt 0.4584 0.0020
vt 0.4464 0.9980
vt 0.4464 0.0020
vt 0.4344 0.9980
vt 0.4344 0.0020
vt 0.5656 0.0020
vt 0.5656 0.9980
vt 0.5568 0.9980
vt 0.5568 0.0020
vt 0.5448 0.9980
vt 0.5448 0.0020
vn 0.7071 -0.0000 0.7071
vn 0.2588 -0.0000 0.9659
vn -0.2588 -0.0000 0.9659
vn -0.7071 -0.0000 0.7071
vn -0.9659 -0.0000 0.2588
vn -0.9659 0.0000 -0.2588
vn -0.7071 0.0000 -0.7071
vn -0.2588 0.0000 -0.9659
vn 0.2588 0.0000 -0.9659
vn 0.7071 0.0000 -0.7071
vn 0.9659 0.0000 -0.2588
vn 0.9659 -0.0000 0.2588
usemtl None
s off
f 49/53/25 50/54/25 51/55/25 52/56/25
f 52/56/26 51/55/26 53/57/26 54/58/26
f 54/58/27 53/57/27 55/59/27 56/60/27
f 56/60/28 55/59/28 57/61/28 58/62/28
f 58/62/29 57/61/29 59/63/29 60/64/29
f 60/64/30 59/63/30 61/65/30 62/66/30
f 62/66/31 61/65/31 63/67/31 64/68/31
f 64/68/32 63/67/32 65/69/32 66/70/32
f 66/70/33 65/69/33 67/71/33 68/72/33
f 68/73/34 67/74/34 69/75/34 70/76/34
f 70/76/35 69/75/35 71/77/35 72/78/35
f 72/78/36 71/77/36 50/54/36 49/53/36
o table_grp_tableLeg03
v 1.573809 -0.000671 -3.497736
v 1.573809 3.732851 -3.497735
v 1.540852 3.732851 -3.464778
v 1.540852 -0.000671 -3.464779
v 1.495832 3.732851 -3.452715
v 1.495832 -0.000671 -3.452716
v 1.450813 3.732851 -3.464778
v 1.450813 -0.000671 -3.464779
v 1.417856 3.732851 -3.497735
v 1.417856 -0.000671 -3.497736
v 1.405793 3.732851 -3.542755
v 1.405793 -0.000671 -3.542756
v 1.417856 3.732851 -3.587775
v 1.417856 -0.000671 -3.587775
v 1.450813 3.732851 -3.620731
v 1.450813 -0.000671 -3.620732
v 1.495832 3.732851 -3.632795
v 1.495832 -0.000671 -3.632795
v 1.540852 3.732851 -3.620731
v 1.540852 -0.000671 -3.620732
v 1.573809 3.732851 -3.587775
v 1.573809 -0.000671 -3.587775
v 1.585872 3.732851 -3.542755
v 1.585872 -0.000671 -3.542756
vt 0.5328 0.0020
vt 0.5328 0.9980
vt 0.5240 0.9980
vt 0.5240 0.0020
vt 0.5120 0.9980
vt 0.5120 0.0020
vt 0.5000 0.9980
vt 0.5000 0.0020
vt 0.4912 0.9980
vt 0.4912 0.0020
vt 0.4792 0.9980
vt 0.4792 0.0020
vt 0.4672 0.9980
vt 0.4672 0.0020
vt 0.4584 0.9980
vt 0.4584 0.0020
vt 0.4464 0.9980
vt 0.4464 0.0020
vt 0.4344 0.9980
vt 0.4344 0.0020
vt 0.5656 0.0020
vt 0.5656 0.9980
vt 0.5568 0.9980
vt 0.5568 0.0020
vt 0.5448 0.9980
vt 0.5448 0.0020
vn 0.7071 -0.0000 0.7071
vn 0.2588 -0.0000 0.9659
vn -0.2588 -0.0000 0.9659
vn -0.7071 -0.0000 0.7071
vn -0.9659 -0.0000 0.2588
vn -0.9659 0.0000 -0.2588
vn -0.7071 0.0000 -0.7071
vn -0.2588 0.0000 -0.9659
vn 0.2588 0.0000 -0.9659
vn 0.7071 0.0000 -0.7071
vn 0.9659 0.0000 -0.2588
vn 0.9659 -0.0000 0.2588
usemtl None
s off
f 73/79/37 74/80/37 75/81/37 76/82/37
f 76/82/38 75/81/38 77/83/38 78/84/38
f 78/84/39 77/83/39 79/85/39 80/86/39
f 80/86/40 79/85/40 81/87/40 82/88/40
f 82/88/41 81/87/41 83/89/41 84/90/41
f 84/90/42 83/89/42 85/91/42 86/92/42
f 86/92/43 85/91/43 87/93/43 88/94/43
f 88/94/44 87/93/44 89/95/44 90/96/44
f 90/96/45 89/95/45 91/97/45 92/98/45
f 92/99/46 91/100/46 93/101/46 94/102/46
f 94/102/47 93/101/47 95/103/47 96/104/47
f 96/104/48 95/103/48 74/80/48 73/79/48
